---BACKBONE CONFIGS---
==========================================
backbone_net:resnet
depth:50
dropout:0.5
groups:1
frames_per_group:1
without_t_stride:True
pooling_method:max
dw_t_conv:False
temporal_module_name:TAM
blending_frames:3
blending_method:sum
dw_conv:True
gpu:None
cudnn_benchmark:True
batch_size:32
lr:0.01
lr_scheduler:cosine
lr_steps:[15, 30, 45]
momentum:0.9
nesterov:False
weight_decay:0.0005
epochs:50
resume:
pretrained:./state_dicts/K400-TAM-ResNet-50-f32.pth.tar
start_epoch:0
clip_gradient:None
imagenet_pretrained:True
workers:0
datadir:/home/SarosijBose/HAR/KDHAR/kinetics400/k400
dataset:kinetics400
threed_data:False
input_size:224
disable_scaleup:False
random_sampling:False
dense_sampling:False
augmentor_ver:v1
scale_range:[256, 320]
modality:rgb
mean:None
std:None
logdir:snapshots/
print_freq:100
show_model:False
evaluate:False
num_crops:1
num_clips:1
sync_bn:False
world_size:1
rank:0
dist_url:tcp://127.0.0.1:23456
dist_backend:nccl
multiprocessing_distributed:False
num_classes:400

---FINE TUNE CONFIGS---
==========================================
base_path:/home/SarosijBose/HAR/KDHAR/soccer/images
stand_alone:False
epochs:100
runs:5
bs:64
loss:CrossEntropy
optim:Adam
lr:0.0001
workers:4
input_size:224
gpu:0
save_ckpt:True
eval_only:False
eval_ckpt:None
log_file:train_n_val5
device:cuda:0
log_dir:./log/train_n_val5/train_n_val5.log

Epoch:1 || loss------> 1.288
Epoch:2 || loss------> 1.650
Epoch:3 || loss------> 1.592
Epoch:4 || loss------> 1.611
Epoch:5 || loss------> 1.666
Epoch:6 || loss------> 1.637
Epoch:7 || loss------> 1.616
Epoch:8 || loss------> 1.529
Epoch:9 || loss------> 1.485
Epoch:10 || loss------> 1.422
Epoch:11 || loss------> 1.384
Epoch:12 || loss------> 1.355
Epoch:13 || loss------> 1.339
Epoch:14 || loss------> 1.315
Epoch:15 || loss------> 1.318
Epoch:16 || loss------> 1.336
Epoch:17 || loss------> 1.298
Epoch:18 || loss------> 1.298
Epoch:19 || loss------> 1.254
Epoch:20 || loss------> 1.242
Epoch:21 || loss------> 1.217
Epoch:22 || loss------> 1.213
Epoch:23 || loss------> 1.221
Epoch:24 || loss------> 1.179
Epoch:25 || loss------> 1.180
Epoch:26 || loss------> 1.202
Epoch:27 || loss------> 1.159
Epoch:28 || loss------> 1.185
Epoch:29 || loss------> 1.176
Epoch:30 || loss------> 1.172
Epoch:31 || loss------> 1.117
Epoch:32 || loss------> 1.151
Epoch:33 || loss------> 1.120
Epoch:34 || loss------> 1.126
Epoch:35 || loss------> 1.127
Epoch:36 || loss------> 1.101
Epoch:37 || loss------> 1.097
Epoch:38 || loss------> 1.090
Epoch:39 || loss------> 1.066
Epoch:40 || loss------> 1.049
Epoch:41 || loss------> 1.044
Epoch:42 || loss------> 1.028
Epoch:43 || loss------> 1.038
Epoch:44 || loss------> 1.027
Epoch:45 || loss------> 1.006
Epoch:46 || loss------> 1.001
Epoch:47 || loss------> 0.989
Epoch:48 || loss------> 1.004
Epoch:49 || loss------> 0.984
Epoch:50 || loss------> 0.983
Epoch:51 || loss------> 0.975
Epoch:52 || loss------> 0.985
Epoch:53 || loss------> 0.956
Epoch:54 || loss------> 0.967
Epoch:55 || loss------> 0.951
Epoch:56 || loss------> 0.956
Epoch:57 || loss------> 0.957
Epoch:58 || loss------> 0.927
Epoch:59 || loss------> 0.938
Epoch:60 || loss------> 0.939
Epoch:61 || loss------> 0.946
Epoch:62 || loss------> 0.932
Epoch:63 || loss------> 0.926
Epoch:64 || loss------> 0.924
Epoch:65 || loss------> 0.941
Epoch:66 || loss------> 0.924
Epoch:67 || loss------> 0.911
Epoch:68 || loss------> 0.920
Epoch:69 || loss------> 0.911
Epoch:70 || loss------> 0.921
Epoch:71 || loss------> 0.924
Epoch:72 || loss------> 0.915
Epoch:73 || loss------> 0.908
Epoch:74 || loss------> 0.893
Epoch:75 || loss------> 0.904
Epoch:76 || loss------> 0.906
Epoch:77 || loss------> 0.899
Epoch:78 || loss------> 0.899
Epoch:79 || loss------> 0.897
Epoch:80 || loss------> 0.895
Epoch:81 || loss------> 0.881
Epoch:82 || loss------> 0.887
Epoch:83 || loss------> 0.887
Epoch:84 || loss------> 0.892
Epoch:85 || loss------> 0.895
Epoch:86 || loss------> 0.874
Epoch:87 || loss------> 0.905
Epoch:88 || loss------> 0.886
Epoch:89 || loss------> 0.878
Epoch:90 || loss------> 0.897
Epoch:91 || loss------> 0.873
Epoch:92 || loss------> 0.868
Epoch:93 || loss------> 0.899
Epoch:94 || loss------> 0.885
Epoch:95 || loss------> 0.885
Epoch:96 || loss------> 0.876
Epoch:97 || loss------> 0.886
Epoch:98 || loss------> 0.878
Epoch:99 || loss------> 0.867
Epoch:100 || loss------> 0.884
------Training complete------
No. of correct predictions: 1218 || No. of total samples: 2375
Accuracy of fine-tuned network on test videos: 51.284 %
------Evaluation complete. Saving best available checkpoint------
Epoch:1 || loss------> 1.267
Epoch:2 || loss------> 1.577
Epoch:3 || loss------> 1.658
Epoch:4 || loss------> 1.660
Epoch:5 || loss------> 1.484
Epoch:6 || loss------> 1.535
Epoch:7 || loss------> 1.497
Epoch:8 || loss------> 1.481
Epoch:9 || loss------> 1.474
Epoch:10 || loss------> 1.394
Epoch:11 || loss------> 1.383
Epoch:12 || loss------> 1.295
Epoch:13 || loss------> 1.309
Epoch:14 || loss------> 1.283
Epoch:15 || loss------> 1.272
Epoch:16 || loss------> 1.269
Epoch:17 || loss------> 1.259
Epoch:18 || loss------> 1.264
Epoch:19 || loss------> 1.296
Epoch:20 || loss------> 1.213
Epoch:21 || loss------> 1.203
Epoch:22 || loss------> 1.247
Epoch:23 || loss------> 1.222
Epoch:24 || loss------> 1.193
Epoch:25 || loss------> 1.213
Epoch:26 || loss------> 1.134
Epoch:27 || loss------> 1.168
Epoch:28 || loss------> 1.130
Epoch:29 || loss------> 1.133
Epoch:30 || loss------> 1.107
Epoch:31 || loss------> 1.102
Epoch:32 || loss------> 1.083
Epoch:33 || loss------> 1.084
Epoch:34 || loss------> 1.072
Epoch:35 || loss------> 1.058
Epoch:36 || loss------> 1.067
Epoch:37 || loss------> 1.039
Epoch:38 || loss------> 1.031
Epoch:39 || loss------> 1.013
Epoch:40 || loss------> 1.030
Epoch:41 || loss------> 1.043
Epoch:42 || loss------> 0.999
Epoch:43 || loss------> 1.006
Epoch:44 || loss------> 0.982
Epoch:45 || loss------> 0.981
Epoch:46 || loss------> 0.970
Epoch:47 || loss------> 0.976
Epoch:48 || loss------> 0.961
Epoch:49 || loss------> 0.957
Epoch:50 || loss------> 0.957
Epoch:51 || loss------> 0.939
Epoch:52 || loss------> 0.938
Epoch:53 || loss------> 0.940
Epoch:54 || loss------> 0.932
Epoch:55 || loss------> 0.921
Epoch:56 || loss------> 0.926
Epoch:57 || loss------> 0.903
Epoch:58 || loss------> 0.899
Epoch:59 || loss------> 0.897
Epoch:60 || loss------> 0.887
Epoch:61 || loss------> 0.887
Epoch:62 || loss------> 0.891
Epoch:63 || loss------> 0.874
Epoch:64 || loss------> 0.874
Epoch:65 || loss------> 0.877
Epoch:66 || loss------> 0.870
Epoch:67 || loss------> 0.857
Epoch:68 || loss------> 0.860
Epoch:69 || loss------> 0.865
Epoch:70 || loss------> 0.846
Epoch:71 || loss------> 0.848
Epoch:72 || loss------> 0.854
Epoch:73 || loss------> 0.836
Epoch:74 || loss------> 0.857
Epoch:75 || loss------> 0.845
Epoch:76 || loss------> 0.838
Epoch:77 || loss------> 0.847
Epoch:78 || loss------> 0.843
Epoch:79 || loss------> 0.834
Epoch:80 || loss------> 0.840
Epoch:81 || loss------> 0.830
Epoch:82 || loss------> 0.828
Epoch:83 || loss------> 0.841
Epoch:84 || loss------> 0.824
Epoch:85 || loss------> 0.821
Epoch:86 || loss------> 0.819
Epoch:87 || loss------> 0.832
Epoch:88 || loss------> 0.821
Epoch:89 || loss------> 0.825
Epoch:90 || loss------> 0.822
Epoch:91 || loss------> 0.826
Epoch:92 || loss------> 0.822
Epoch:93 || loss------> 0.832
Epoch:94 || loss------> 0.829
Epoch:95 || loss------> 0.807
Epoch:96 || loss------> 0.819
Epoch:97 || loss------> 0.812
Epoch:98 || loss------> 0.840
Epoch:99 || loss------> 0.820
Epoch:100 || loss------> 0.824
------Training complete------
No. of correct predictions: 1246 || No. of total samples: 2375
Accuracy of fine-tuned network on test videos: 52.463 %
------Evaluation complete. Saving best available checkpoint------
Epoch:1 || loss------> 1.283
Epoch:2 || loss------> 1.606
Epoch:3 || loss------> 1.555
Epoch:4 || loss------> 1.588
Epoch:5 || loss------> 1.534
Epoch:6 || loss------> 1.458
Epoch:7 || loss------> 1.475
Epoch:8 || loss------> 1.517
Epoch:9 || loss------> 1.432
Epoch:10 || loss------> 1.348
Epoch:11 || loss------> 1.349
Epoch:12 || loss------> 1.311
Epoch:13 || loss------> 1.254
Epoch:14 || loss------> 1.292
Epoch:15 || loss------> 1.210
Epoch:16 || loss------> 1.224
Epoch:17 || loss------> 1.200
Epoch:18 || loss------> 1.196
Epoch:19 || loss------> 1.177
Epoch:20 || loss------> 1.158
Epoch:21 || loss------> 1.136
Epoch:22 || loss------> 1.136
Epoch:23 || loss------> 1.117
Epoch:24 || loss------> 1.087
Epoch:25 || loss------> 1.108
Epoch:26 || loss------> 1.093
Epoch:27 || loss------> 1.067
Epoch:28 || loss------> 1.058
Epoch:29 || loss------> 1.024
Epoch:30 || loss------> 1.024
Epoch:31 || loss------> 1.015
Epoch:32 || loss------> 1.000
Epoch:33 || loss------> 0.993
Epoch:34 || loss------> 0.995
Epoch:35 || loss------> 0.995
Epoch:36 || loss------> 0.964
Epoch:37 || loss------> 0.984
Epoch:38 || loss------> 0.958
Epoch:39 || loss------> 0.944
Epoch:40 || loss------> 0.949
Epoch:41 || loss------> 0.950
Epoch:42 || loss------> 0.944
Epoch:43 || loss------> 0.924
Epoch:44 || loss------> 0.925
Epoch:45 || loss------> 0.916
Epoch:46 || loss------> 0.920
Epoch:47 || loss------> 0.930
Epoch:48 || loss------> 0.881
Epoch:49 || loss------> 0.914
Epoch:50 || loss------> 0.895
Epoch:51 || loss------> 0.891
Epoch:52 || loss------> 0.897
Epoch:53 || loss------> 0.876
Epoch:54 || loss------> 0.883
Epoch:55 || loss------> 0.875
Epoch:56 || loss------> 0.878
Epoch:57 || loss------> 0.885
Epoch:58 || loss------> 0.854
Epoch:59 || loss------> 0.864
Epoch:60 || loss------> 0.862
Epoch:61 || loss------> 0.857
Epoch:62 || loss------> 0.868
Epoch:63 || loss------> 0.836
Epoch:64 || loss------> 0.856
Epoch:65 || loss------> 0.853
Epoch:66 || loss------> 0.828
Epoch:67 || loss------> 0.843
Epoch:68 || loss------> 0.847
Epoch:69 || loss------> 0.838
Epoch:70 || loss------> 0.837
Epoch:71 || loss------> 0.838
Epoch:72 || loss------> 0.829
Epoch:73 || loss------> 0.819
Epoch:74 || loss------> 0.813
Epoch:75 || loss------> 0.817
Epoch:76 || loss------> 0.822
Epoch:77 || loss------> 0.791
Epoch:78 || loss------> 0.837
Epoch:79 || loss------> 0.797
Epoch:80 || loss------> 0.824
Epoch:81 || loss------> 0.813
Epoch:82 || loss------> 0.810
Epoch:83 || loss------> 0.808
Epoch:84 || loss------> 0.819
Epoch:85 || loss------> 0.798
Epoch:86 || loss------> 0.783
Epoch:87 || loss------> 0.807
Epoch:88 || loss------> 0.788
Epoch:89 || loss------> 0.816
Epoch:90 || loss------> 0.797
Epoch:91 || loss------> 0.801
Epoch:92 || loss------> 0.797
Epoch:93 || loss------> 0.801
Epoch:94 || loss------> 0.789
Epoch:95 || loss------> 0.800
Epoch:96 || loss------> 0.781
Epoch:97 || loss------> 0.805
Epoch:98 || loss------> 0.799
Epoch:99 || loss------> 0.794
Epoch:100 || loss------> 0.790
------Training complete------
No. of correct predictions: 1374 || No. of total samples: 2375
Accuracy of fine-tuned network on test videos: 57.853 %
------Evaluation complete. Saving best available checkpoint------
Epoch:1 || loss------> 1.289
Epoch:2 || loss------> 1.569
Epoch:3 || loss------> 1.544
Epoch:4 || loss------> 1.593
Epoch:5 || loss------> 1.543
Epoch:6 || loss------> 1.549
Epoch:7 || loss------> 1.523
Epoch:8 || loss------> 1.494
Epoch:9 || loss------> 1.513
Epoch:10 || loss------> 1.382
Epoch:11 || loss------> 1.379
Epoch:12 || loss------> 1.328
Epoch:13 || loss------> 1.314
Epoch:14 || loss------> 1.311
Epoch:15 || loss------> 1.316
Epoch:16 || loss------> 1.259
Epoch:17 || loss------> 1.253
Epoch:18 || loss------> 1.260
Epoch:19 || loss------> 1.231
Epoch:20 || loss------> 1.230
Epoch:21 || loss------> 1.221
Epoch:22 || loss------> 1.205
Epoch:23 || loss------> 1.205
Epoch:24 || loss------> 1.181
Epoch:25 || loss------> 1.189
Epoch:26 || loss------> 1.156
Epoch:27 || loss------> 1.146
Epoch:28 || loss------> 1.155
Epoch:29 || loss------> 1.146
Epoch:30 || loss------> 1.137
Epoch:31 || loss------> 1.128
Epoch:32 || loss------> 1.091
Epoch:33 || loss------> 1.128
Epoch:34 || loss------> 1.074
Epoch:35 || loss------> 1.100
Epoch:36 || loss------> 1.053
Epoch:37 || loss------> 1.081
Epoch:38 || loss------> 1.042
Epoch:39 || loss------> 1.044
Epoch:40 || loss------> 1.069
Epoch:41 || loss------> 1.040
Epoch:42 || loss------> 1.030
Epoch:43 || loss------> 1.019
Epoch:44 || loss------> 1.024
Epoch:45 || loss------> 1.012
Epoch:46 || loss------> 1.009
Epoch:47 || loss------> 0.987
Epoch:48 || loss------> 0.990
Epoch:49 || loss------> 0.986
Epoch:50 || loss------> 0.967
Epoch:51 || loss------> 0.976
Epoch:52 || loss------> 0.963
Epoch:53 || loss------> 0.955
Epoch:54 || loss------> 0.968
Epoch:55 || loss------> 0.957
Epoch:56 || loss------> 0.927
Epoch:57 || loss------> 0.948
Epoch:58 || loss------> 0.957
Epoch:59 || loss------> 0.920
Epoch:60 || loss------> 0.943
Epoch:61 || loss------> 0.914
Epoch:62 || loss------> 0.921
Epoch:63 || loss------> 0.928
Epoch:64 || loss------> 0.922
Epoch:65 || loss------> 0.901
Epoch:66 || loss------> 0.914
Epoch:67 || loss------> 0.901
Epoch:68 || loss------> 0.919
Epoch:69 || loss------> 0.894
Epoch:70 || loss------> 0.882
Epoch:71 || loss------> 0.912
Epoch:72 || loss------> 0.884
Epoch:73 || loss------> 0.887
Epoch:74 || loss------> 0.893
Epoch:75 || loss------> 0.884
Epoch:76 || loss------> 0.889
Epoch:77 || loss------> 0.874
Epoch:78 || loss------> 0.872
Epoch:79 || loss------> 0.877
Epoch:80 || loss------> 0.876
Epoch:81 || loss------> 0.870
Epoch:82 || loss------> 0.882
Epoch:83 || loss------> 0.863
Epoch:84 || loss------> 0.877
Epoch:85 || loss------> 0.862
Epoch:86 || loss------> 0.865
Epoch:87 || loss------> 0.867
Epoch:88 || loss------> 0.865
Epoch:89 || loss------> 0.873
Epoch:90 || loss------> 0.859
Epoch:91 || loss------> 0.870
Epoch:92 || loss------> 0.858
Epoch:93 || loss------> 0.868
Epoch:94 || loss------> 0.854
Epoch:95 || loss------> 0.880
Epoch:96 || loss------> 0.868
Epoch:97 || loss------> 0.859
Epoch:98 || loss------> 0.861
Epoch:99 || loss------> 0.865
Epoch:100 || loss------> 0.857
------Training complete------
No. of correct predictions: 1292 || No. of total samples: 2375
Accuracy of fine-tuned network on test videos: 54.400 %
------Evaluation complete. Saving best available checkpoint------
Epoch:1 || loss------> 1.285
Epoch:2 || loss------> 1.588
Epoch:3 || loss------> 1.617
Epoch:4 || loss------> 1.559
Epoch:5 || loss------> 1.521
Epoch:6 || loss------> 1.456
Epoch:7 || loss------> 1.435
Epoch:8 || loss------> 1.421
Epoch:9 || loss------> 1.481
Epoch:10 || loss------> 1.405
Epoch:11 || loss------> 1.354
Epoch:12 || loss------> 1.291
Epoch:13 || loss------> 1.303
Epoch:14 || loss------> 1.261
Epoch:15 || loss------> 1.279
Epoch:16 || loss------> 1.257
Epoch:17 || loss------> 1.246
Epoch:18 || loss------> 1.220
Epoch:19 || loss------> 1.217
Epoch:20 || loss------> 1.206
Epoch:21 || loss------> 1.169
Epoch:22 || loss------> 1.151
Epoch:23 || loss------> 1.129
Epoch:24 || loss------> 1.137
Epoch:25 || loss------> 1.113
Epoch:26 || loss------> 1.102
Epoch:27 || loss------> 1.072
Epoch:28 || loss------> 1.063
Epoch:29 || loss------> 1.061
Epoch:30 || loss------> 1.092
Epoch:31 || loss------> 1.035
Epoch:32 || loss------> 1.047
Epoch:33 || loss------> 1.028
Epoch:34 || loss------> 1.017
Epoch:35 || loss------> 1.035
Epoch:36 || loss------> 1.017
Epoch:37 || loss------> 1.012
Epoch:38 || loss------> 1.011
Epoch:39 || loss------> 0.985
Epoch:40 || loss------> 0.990
Epoch:41 || loss------> 0.983
Epoch:42 || loss------> 0.970
Epoch:43 || loss------> 0.971
Epoch:44 || loss------> 0.955
Epoch:45 || loss------> 0.958
Epoch:46 || loss------> 0.946
Epoch:47 || loss------> 0.951
Epoch:48 || loss------> 0.939
Epoch:49 || loss------> 0.943
Epoch:50 || loss------> 0.921
Epoch:51 || loss------> 0.922
Epoch:52 || loss------> 0.916
Epoch:53 || loss------> 0.913
Epoch:54 || loss------> 0.912
Epoch:55 || loss------> 0.912
Epoch:56 || loss------> 0.894
Epoch:57 || loss------> 0.909
Epoch:58 || loss------> 0.886
Epoch:59 || loss------> 0.899
Epoch:60 || loss------> 0.884
Epoch:61 || loss------> 0.899
Epoch:62 || loss------> 0.882
Epoch:63 || loss------> 0.870
Epoch:64 || loss------> 0.877
Epoch:65 || loss------> 0.881
Epoch:66 || loss------> 0.860
Epoch:67 || loss------> 0.850
Epoch:68 || loss------> 0.867
Epoch:69 || loss------> 0.860
Epoch:70 || loss------> 0.857
Epoch:71 || loss------> 0.846
Epoch:72 || loss------> 0.851
Epoch:73 || loss------> 0.854
Epoch:74 || loss------> 0.833
Epoch:75 || loss------> 0.838
Epoch:76 || loss------> 0.838
Epoch:77 || loss------> 0.835
Epoch:78 || loss------> 0.828
Epoch:79 || loss------> 0.832
Epoch:80 || loss------> 0.831
Epoch:81 || loss------> 0.820
Epoch:82 || loss------> 0.836
Epoch:83 || loss------> 0.822
Epoch:84 || loss------> 0.831
Epoch:85 || loss------> 0.819
Epoch:86 || loss------> 0.820
Epoch:87 || loss------> 0.816
Epoch:88 || loss------> 0.827
Epoch:89 || loss------> 0.816
Epoch:90 || loss------> 0.820
Epoch:91 || loss------> 0.814
Epoch:92 || loss------> 0.835
Epoch:93 || loss------> 0.801
Epoch:94 || loss------> 0.814
Epoch:95 || loss------> 0.823
Epoch:96 || loss------> 0.828
Epoch:97 || loss------> 0.824
Epoch:98 || loss------> 0.812
Epoch:99 || loss------> 0.809
Epoch:100 || loss------> 0.818
------Training complete------
No. of correct predictions: 1302 || No. of total samples: 2375
Accuracy of fine-tuned network on test videos: 54.821 %
------Evaluation complete. Saving best available checkpoint------
Mean accuracy obtained over 5 runs: 54.164
Best accuracy obtained over 5 runs: 57.853
{51.28421052631579, 52.463157894736845, 54.82105263157895, 54.4, 57.85263157894737}
